<svg version="1.1" id="Layer_1" xmlns="http://www.w3.org/2000/svg" xmlns:xlink="http://www.w3.org/1999/xlink" x="0px" y="0px"
	 width="100%" viewBox="0 0 834 835" enable-background="new 0 0 834 835" xml:space="preserve">
<path fill="#00274C" opacity="1.000000" stroke="none" 
	d="
M557.000000,836.000000 
	C371.333374,836.000000 186.166779,836.000000 1.000124,836.000000 
	C1.000083,557.666809 1.000083,279.333618 1.000041,1.000311 
	C278.999786,1.000207 556.999573,1.000207 834.999512,1.000104 
	C834.999634,279.333038 834.999634,557.666077 834.999817,835.999512 
	C742.500000,836.000000 650.000000,836.000000 557.000000,836.000000 
M539.500000,562.167175 
	C600.111023,562.167175 660.722046,562.167175 721.574097,562.167175 
	C721.574097,521.242493 721.574097,480.845428 721.574097,439.834442 
	C706.122253,439.834442 690.922913,439.834442 675.934875,439.834442 
	C675.934875,376.324982 675.934875,313.430176 675.934875,249.978027 
	C691.403687,249.978027 706.463074,249.978027 721.480042,249.978027 
	C721.480042,209.022705 721.480042,168.628479 721.480042,128.166504 
	C720.304626,128.097656 719.480225,128.007202 718.655823,128.007095 
	C660.994507,128.000015 603.333130,128.036896 545.672119,127.903564 
	C542.397400,127.896004 540.972595,129.483170 539.367676,131.704605 
	C514.891907,165.582520 490.382965,199.436447 465.869263,233.286926 
	C450.149963,254.993378 434.410217,276.684998 418.391876,298.780151 
	C417.095581,297.072174 415.979370,295.659515 414.924072,294.202698 
	C375.753174,240.128311 336.563873,186.067139 297.489349,131.923172 
	C295.426880,129.065323 293.409058,127.900620 289.811035,127.908859 
	C233.316589,128.038300 176.821732,127.999641 120.326973,127.999641 
	C118.562622,127.999641 116.798279,127.999641 115.181625,127.999641 
	C115.181625,169.081573 115.181625,209.488770 115.181625,250.377701 
	C130.602600,250.377701 145.679871,250.377701 160.739899,250.377701 
	C160.739899,313.785492 160.739899,376.708405 160.739899,440.065186 
	C145.403152,440.065186 130.320908,440.065186 115.086655,440.065186 
	C115.086655,480.901306 115.086655,521.302490 115.086655,561.908325 
	C191.239868,561.908325 267.139160,561.908325 343.254822,561.908325 
	C343.254822,521.224670 343.254822,480.800049 343.254822,439.783417 
	C326.784576,439.783417 310.570129,439.783417 294.541595,439.783417 
	C294.541595,399.013519 294.541595,358.836792 294.541595,317.556213 
	C336.150330,374.414093 377.101715,430.373718 418.324585,486.704315 
	C459.574249,430.318390 500.403076,374.507721 542.118774,317.484741 
	C542.118774,359.245483 542.118774,399.408112 542.118774,440.094788 
	C525.724670,440.094788 509.490784,440.094788 493.292480,440.094788 
	C493.292480,481.031128 493.292480,521.443481 493.292480,562.167175 
	C508.555450,562.167175 523.527710,562.167175 539.500000,562.167175 
M721.850281,702.341248 
	C721.850281,676.054016 721.850281,649.766724 721.850281,623.369385 
	C716.050232,623.369385 710.692810,623.369385 705.019775,623.369385 
	C705.019775,641.634644 705.019775,659.522705 705.019775,677.410767 
	C703.866943,676.602661 703.440308,675.617432 703.054138,674.616516 
	C696.896667,658.657654 690.784668,642.681030 684.522705,626.763306 
	C683.953125,625.315369 682.474487,623.215210 681.339111,623.163940 
	C674.078247,622.836060 666.795227,622.996765 659.418213,622.996765 
	C659.418213,651.283875 659.418213,679.024109 659.418213,706.910034 
	C664.930237,706.910034 670.171753,706.910034 675.860962,706.910034 
	C675.860962,687.618713 675.860962,668.591431 675.860962,649.564087 
	C677.211304,650.525024 677.671692,651.677917 678.107605,652.840027 
	C684.405579,669.630676 690.773865,686.395752 696.925720,703.239807 
	C697.993469,706.163269 699.270996,707.459473 702.545837,707.262878 
	C707.693481,706.953857 712.881897,707.000671 718.036255,707.247559 
	C721.160889,707.397217 722.367004,706.352539 721.850281,702.341248 
M645.111206,682.592346 
	C645.080078,670.312561 645.591736,658.001465 644.885437,645.760620 
	C643.922791,629.079224 635.233826,621.269043 618.616150,620.828186 
	C616.953918,620.784119 615.287048,620.773254 613.626160,620.840820 
	C599.692017,621.407593 591.607422,627.960815 589.004211,641.631104 
	C586.055115,657.117615 586.265564,672.722656 589.004211,688.231445 
	C590.156372,694.756653 592.919861,700.593933 598.710693,704.464050 
	C617.852600,717.257019 642.353333,706.147705 645.111206,682.592346 
M302.154358,688.499268 
	C302.154358,694.607117 302.154358,700.714966 302.154358,706.863770 
	C308.458618,706.863770 314.184692,706.863770 320.383545,706.863770 
	C320.383545,695.329468 320.383545,684.100647 320.383545,672.946289 
	C333.277466,671.433899 336.973267,674.691101 336.995392,687.089844 
	C337.003998,691.916931 336.691956,696.782349 337.222504,701.552795 
	C337.442291,703.528992 339.299835,706.719849 340.737854,706.911011 
	C345.737244,707.575439 350.879150,707.167664 355.842865,707.167664 
	C355.278259,699.205383 354.493439,691.920837 354.312500,684.621216 
	C354.090454,675.662292 352.371246,667.958679 340.705475,665.794189 
	C348.237305,663.345276 352.673828,659.264832 353.567261,652.845764 
	C354.286987,647.675232 354.224670,642.204712 353.377808,637.053284 
	C352.188507,629.818542 347.333527,624.552063 340.066711,624.110657 
	C327.567810,623.351501 314.989441,623.900574 302.154358,623.900574 
	C302.154358,644.932556 302.154358,666.216003 302.154358,688.499268 
M167.837418,700.680542 
	C167.556488,696.199646 167.203156,691.721802 167.009613,687.237122 
	C166.601212,677.774536 166.326706,668.279602 153.150986,665.674438 
	C162.063095,662.994385 165.594101,657.453064 166.689102,649.910278 
	C168.879898,634.819153 162.502899,624.422913 149.064957,623.349915 
	C137.858704,622.455139 126.524216,623.166504 115.157684,623.166504 
	C115.157684,651.264526 115.157684,679.108215 115.157684,706.770630 
	C121.215416,706.770630 126.929886,706.770630 133.102203,706.770630 
	C133.102203,695.145081 133.102203,683.920105 133.102203,672.743713 
	C146.377548,671.945984 149.322021,674.696045 149.491257,687.439270 
	C149.561874,692.756836 149.567505,698.089905 150.036743,703.377319 
	C150.155670,704.717407 151.860809,706.913452 152.968887,706.998413 
	C158.056564,707.388794 163.190964,707.170288 168.353699,707.170288 
	C168.157913,704.942200 168.013153,703.294678 167.837418,700.680542 
M461.408325,688.845398 
	C463.884949,688.845398 466.361572,688.845398 469.008667,688.845398 
	C470.365784,694.129578 471.546753,699.136597 472.994476,704.065186 
	C473.337128,705.231812 474.534027,706.979492 475.408478,707.022400 
	C480.933655,707.293457 486.478729,707.159912 492.487579,707.159912 
	C484.738281,678.615845 477.223297,650.934814 469.682800,623.159790 
	C461.810913,623.159790 454.177643,623.159790 446.149139,623.159790 
	C438.444580,650.981628 430.726257,678.853333 422.947449,706.943481 
	C429.162476,706.943481 434.774506,706.943481 440.557678,706.943481 
	C442.155182,700.888428 443.707672,695.003967 445.332489,688.845398 
	C450.483002,688.845398 455.459900,688.845398 461.408325,688.845398 
M238.043060,641.703186 
	C237.731552,655.142456 237.086868,668.586731 237.290466,682.018188 
	C237.361099,686.678711 238.873428,691.617126 240.876328,695.890015 
	C245.970825,706.758362 255.951675,708.442566 266.582153,708.159973 
	C283.893677,707.699890 293.231262,696.415649 290.642273,679.069214 
	C285.082581,679.069214 279.507294,679.069214 273.756775,679.069214 
	C273.477722,681.754456 273.410797,684.252319 272.924927,686.665955 
	C272.064697,690.939026 270.434753,694.716980 265.257538,695.131531 
	C260.659546,695.499878 257.263214,693.177185 256.132507,687.752869 
	C255.021942,682.425354 254.300415,676.888733 254.406784,671.463440 
	C254.598419,661.690125 255.182098,651.889832 256.323395,642.185608 
	C256.829010,637.886536 259.754822,634.543396 264.932190,634.870667 
	C269.918335,635.185791 271.546844,638.675232 272.257141,642.910400 
	C272.631561,645.142883 272.889648,647.394836 273.192200,649.579712 
	C278.930237,649.579712 284.359558,649.579712 289.750214,649.579712 
	C291.206146,637.906189 287.556183,628.935486 279.752350,624.654907 
	C263.692230,615.845520 243.693985,623.654053 238.043060,641.703186 
M370.636475,622.991455 
	C366.816193,622.499146 367.849060,625.334167 367.846191,627.241882 
	C367.808014,652.718018 367.816620,678.194275 367.835449,703.670471 
	C367.836243,704.770325 368.048035,705.870117 368.143433,706.794495 
	C383.853271,706.794495 399.228149,706.794495 414.508911,706.794495 
	C414.508911,702.336487 414.508911,698.270508 414.508911,693.863770 
	C404.726776,693.863770 395.280731,693.863770 385.769287,693.863770 
	C385.769287,685.769714 385.769287,678.028259 385.769287,669.674316 
	C394.547211,669.674316 403.097961,669.674316 411.505005,669.674316 
	C411.505005,664.985229 411.505005,660.915527 411.505005,656.344849 
	C402.762177,656.344849 394.352448,656.344849 385.829163,656.344849 
	C385.829163,649.425293 385.829163,643.028015 385.829163,636.167847 
	C395.206665,636.167847 404.288147,636.167847 413.604340,636.167847 
	C413.604340,631.632263 413.604340,627.562012 413.604340,622.990967 
	C399.491669,622.990967 385.554749,622.990967 370.636475,622.991455 
M198.007187,652.446838 
	C198.007187,647.162231 198.007187,641.877686 198.007187,636.169495 
	C207.572281,636.169495 216.655197,636.169495 225.815628,636.169495 
	C225.815628,631.538269 225.815628,627.353760 225.815628,623.398804 
	C210.397629,623.398804 195.343369,623.398804 180.375336,623.398804 
	C180.375336,651.417786 180.375336,679.030334 180.375336,706.909058 
	C195.985870,706.909058 211.375443,706.909058 226.971191,706.909058 
	C226.971191,702.614685 226.971191,698.535767 226.971191,693.897278 
	C217.262604,693.897278 207.711029,693.897278 198.302765,693.897278 
	C198.302765,685.578735 198.302765,677.821777 198.302765,669.616455 
	C207.004486,669.616455 215.417236,669.616455 223.741638,669.616455 
	C223.741638,665.056335 223.741638,660.957153 223.741638,656.479553 
	C216.174637,656.479553 208.868683,656.444092 201.563461,656.501221 
	C199.377106,656.518250 197.407516,656.542603 198.007187,652.446838 
M545.815552,636.612427 
	C546.132141,632.223450 546.448730,627.834473 546.780945,623.229736 
	C527.341309,623.229736 508.622528,623.229736 489.863464,623.229736 
	C489.863464,627.862671 489.863464,632.246216 489.863464,637.065308 
	C496.330597,637.065308 502.415375,637.065308 509.038666,637.065308 
	C509.038666,660.693542 509.038666,683.882507 509.038666,706.911255 
	C515.205200,706.911255 520.808960,706.911255 526.957458,706.911255 
	C526.957458,683.456970 526.957458,660.263855 526.957458,636.822266 
	C533.315552,636.822266 539.124451,636.822266 545.815552,636.612427 
M573.999573,668.500000 
	C573.999573,653.426331 573.999573,638.352600 573.999573,623.276733 
	C567.724243,623.276733 561.997192,623.276733 556.355408,623.276733 
	C556.355408,651.388611 556.355408,679.222778 556.355408,706.974854 
	C562.323303,706.974854 567.934570,706.974854 573.999573,706.974854 
	C573.999573,694.359192 573.999573,681.929626 573.999573,668.500000 
z"/>
<path fill="#FFCB05" opacity="1.000000" stroke="none" 
	d="
M539.000000,562.167175 
	C523.527710,562.167175 508.555450,562.167175 493.292480,562.167175 
	C493.292480,521.443481 493.292480,481.031128 493.292480,440.094788 
	C509.490784,440.094788 525.724670,440.094788 542.118774,440.094788 
	C542.118774,399.408112 542.118774,359.245483 542.118774,317.484741 
	C500.403076,374.507721 459.574249,430.318390 418.324585,486.704315 
	C377.101715,430.373718 336.150330,374.414093 294.541595,317.556213 
	C294.541595,358.836792 294.541595,399.013519 294.541595,439.783417 
	C310.570129,439.783417 326.784576,439.783417 343.254822,439.783417 
	C343.254822,480.800049 343.254822,521.224670 343.254822,561.908325 
	C267.139160,561.908325 191.239868,561.908325 115.086655,561.908325 
	C115.086655,521.302490 115.086655,480.901306 115.086655,440.065186 
	C130.320908,440.065186 145.403152,440.065186 160.739899,440.065186 
	C160.739899,376.708405 160.739899,313.785492 160.739899,250.377701 
	C145.679871,250.377701 130.602600,250.377701 115.181625,250.377701 
	C115.181625,209.488770 115.181625,169.081573 115.181625,127.999641 
	C116.798279,127.999641 118.562622,127.999641 120.326973,127.999641 
	C176.821732,127.999641 233.316589,128.038300 289.811035,127.908859 
	C293.409058,127.900620 295.426880,129.065323 297.489349,131.923172 
	C336.563873,186.067139 375.753174,240.128311 414.924072,294.202698 
	C415.979370,295.659515 417.095581,297.072174 418.391876,298.780151 
	C434.410217,276.684998 450.149963,254.993378 465.869263,233.286926 
	C490.382965,199.436447 514.891907,165.582520 539.367676,131.704605 
	C540.972595,129.483170 542.397400,127.896004 545.672119,127.903564 
	C603.333130,128.036896 660.994507,128.000015 718.655823,128.007095 
	C719.480225,128.007202 720.304626,128.097656 721.480042,128.166504 
	C721.480042,168.628479 721.480042,209.022705 721.480042,249.978027 
	C706.463074,249.978027 691.403687,249.978027 675.934875,249.978027 
	C675.934875,313.430176 675.934875,376.324982 675.934875,439.834442 
	C690.922913,439.834442 706.122253,439.834442 721.574097,439.834442 
	C721.574097,480.845428 721.574097,521.242493 721.574097,562.167175 
	C660.722046,562.167175 600.111023,562.167175 539.000000,562.167175 
z"/>
<path fill="#FAFAFB" opacity="1.000000" stroke="none" 
	d="
M721.850220,702.822510 
	C722.367004,706.352539 721.160889,707.397217 718.036255,707.247559 
	C712.881897,707.000671 707.693481,706.953857 702.545837,707.262878 
	C699.270996,707.459473 697.993469,706.163269 696.925720,703.239807 
	C690.773865,686.395752 684.405579,669.630676 678.107605,652.840027 
	C677.671692,651.677917 677.211304,650.525024 675.860962,649.564087 
	C675.860962,668.591431 675.860962,687.618713 675.860962,706.910034 
	C670.171753,706.910034 664.930237,706.910034 659.418213,706.910034 
	C659.418213,679.024109 659.418213,651.283875 659.418213,622.996765 
	C666.795227,622.996765 674.078247,622.836060 681.339111,623.163940 
	C682.474487,623.215210 683.953125,625.315369 684.522705,626.763306 
	C690.784668,642.681030 696.896667,658.657654 703.054138,674.616516 
	C703.440308,675.617432 703.866943,676.602661 705.019775,677.410767 
	C705.019775,659.522705 705.019775,641.634644 705.019775,623.369385 
	C710.692810,623.369385 716.050232,623.369385 721.850281,623.369385 
	C721.850281,649.766724 721.850281,676.054016 721.850220,702.822510 
z"/>
<path fill="#F9FAFB" opacity="1.000000" stroke="none" 
	d="
M645.065186,683.033875 
	C642.353333,706.147705 617.852600,717.257019 598.710693,704.464050 
	C592.919861,700.593933 590.156372,694.756653 589.004211,688.231445 
	C586.265564,672.722656 586.055115,657.117615 589.004211,641.631104 
	C591.607422,627.960815 599.692017,621.407593 613.626160,620.840820 
	C615.287048,620.773254 616.953918,620.784119 618.616150,620.828186 
	C635.233826,621.269043 643.922791,629.079224 644.885437,645.760620 
	C645.591736,658.001465 645.080078,670.312561 645.065186,683.033875 
M606.097778,645.095032 
	C605.790527,652.567261 605.052246,660.053650 605.297668,667.507629 
	C605.542175,674.931641 606.404785,682.388977 607.711548,689.703979 
	C608.492249,694.074158 612.010864,696.093384 616.636719,696.029175 
	C621.263367,695.964905 624.156250,693.703857 625.594238,689.497864 
	C626.235229,687.623169 626.830200,685.622070 626.863953,683.668335 
	C627.067810,671.869019 627.215088,660.065857 627.115662,648.266174 
	C627.091003,645.336792 626.367126,642.324707 625.460327,639.513367 
	C624.280090,635.854126 621.469666,633.995605 617.561951,633.699463 
	C611.224121,633.219177 608.425598,635.766357 606.097778,645.095032 
z"/>
<path fill="#FBFCFC" opacity="1.000000" stroke="none" 
	d="
M302.154358,687.999390 
	C302.154358,666.216003 302.154358,644.932556 302.154358,623.900574 
	C314.989441,623.900574 327.567810,623.351501 340.066711,624.110657 
	C347.333527,624.552063 352.188507,629.818542 353.377808,637.053284 
	C354.224670,642.204712 354.286987,647.675232 353.567261,652.845764 
	C352.673828,659.264832 348.237305,663.345276 340.705475,665.794189 
	C352.371246,667.958679 354.090454,675.662292 354.312500,684.621216 
	C354.493439,691.920837 355.278259,699.205383 355.842865,707.167664 
	C350.879150,707.167664 345.737244,707.575439 340.737854,706.911011 
	C339.299835,706.719849 337.442291,703.528992 337.222504,701.552795 
	C336.691956,696.782349 337.003998,691.916931 336.995392,687.089844 
	C336.973267,674.691101 333.277466,671.433899 320.383545,672.946289 
	C320.383545,684.100647 320.383545,695.329468 320.383545,706.863770 
	C314.184692,706.863770 308.458618,706.863770 302.154358,706.863770 
	C302.154358,700.714966 302.154358,694.607117 302.154358,687.999390 
M334.545074,655.957947 
	C337.311951,650.404663 338.064911,644.429871 334.418427,639.399963 
	C331.139984,634.877686 325.551178,636.098511 320.451599,636.387512 
	C320.451599,644.093567 320.451599,651.486023 320.451599,660.349243 
	C325.408783,658.968750 329.721100,657.767883 334.545074,655.957947 
z"/>
<path fill="#FBFCFC" opacity="1.000000" stroke="none" 
	d="
M167.852905,701.163818 
	C168.013153,703.294678 168.157913,704.942200 168.353699,707.170288 
	C163.190964,707.170288 158.056564,707.388794 152.968887,706.998413 
	C151.860809,706.913452 150.155670,704.717407 150.036743,703.377319 
	C149.567505,698.089905 149.561874,692.756836 149.491257,687.439270 
	C149.322021,674.696045 146.377548,671.945984 133.102203,672.743713 
	C133.102203,683.920105 133.102203,695.145081 133.102203,706.770630 
	C126.929886,706.770630 121.215416,706.770630 115.157684,706.770630 
	C115.157684,679.108215 115.157684,651.264526 115.157684,623.166504 
	C126.524216,623.166504 137.858704,622.455139 149.064957,623.349915 
	C162.502899,624.422913 168.879898,634.819153 166.689102,649.910278 
	C165.594101,657.453064 162.063095,662.994385 153.150986,665.674438 
	C166.326706,668.279602 166.601212,677.774536 167.009613,687.237122 
	C167.203156,691.721802 167.556488,696.199646 167.852905,701.163818 
M132.839218,647.510315 
	C132.839218,651.284058 132.839218,655.057800 132.839218,659.105103 
	C138.366684,658.938782 144.068420,660.601868 147.274109,655.175903 
	C150.119919,650.359070 150.253250,644.653442 147.285248,639.964661 
	C144.045868,634.847168 138.344009,636.245789 132.839218,636.328125 
	C132.839218,639.949524 132.839218,643.236328 132.839218,647.510315 
z"/>
<path fill="#FBFCFC" opacity="1.000000" stroke="none" 
	d="
M460.922546,688.845398 
	C455.459900,688.845398 450.483002,688.845398 445.332489,688.845398 
	C443.707672,695.003967 442.155182,700.888428 440.557678,706.943481 
	C434.774506,706.943481 429.162476,706.943481 422.947449,706.943481 
	C430.726257,678.853333 438.444580,650.981628 446.149139,623.159790 
	C454.177643,623.159790 461.810913,623.159790 469.682800,623.159790 
	C477.223297,650.934814 484.738281,678.615845 492.487579,707.159912 
	C486.478729,707.159912 480.933655,707.293457 475.408478,707.022400 
	C474.534027,706.979492 473.337128,705.231812 472.994476,704.065186 
	C471.546753,699.136597 470.365784,694.129578 469.008667,688.845398 
	C466.361572,688.845398 463.884949,688.845398 460.922546,688.845398 
M454.655212,675.853882 
	C458.064453,675.853882 461.473694,675.853882 465.425232,675.853882 
	C462.568420,664.021606 459.892242,652.937500 457.216064,641.853333 
	C456.909424,641.915771 456.602783,641.978149 456.296173,642.040527 
	C453.804688,653.161926 451.313202,664.283325 448.721100,675.853882 
	C450.759430,675.853882 452.238617,675.853882 454.655212,675.853882 
z"/>
<path fill="#FAFBFB" opacity="1.000000" stroke="none" 
	d="
M238.118530,641.292480 
	C243.693985,623.654053 263.692230,615.845520 279.752350,624.654907 
	C287.556183,628.935486 291.206146,637.906189 289.750214,649.579712 
	C284.359558,649.579712 278.930237,649.579712 273.192200,649.579712 
	C272.889648,647.394836 272.631561,645.142883 272.257141,642.910400 
	C271.546844,638.675232 269.918335,635.185791 264.932190,634.870667 
	C259.754822,634.543396 256.829010,637.886536 256.323395,642.185608 
	C255.182098,651.889832 254.598419,661.690125 254.406784,671.463440 
	C254.300415,676.888733 255.021942,682.425354 256.132507,687.752869 
	C257.263214,693.177185 260.659546,695.499878 265.257538,695.131531 
	C270.434753,694.716980 272.064697,690.939026 272.924927,686.665955 
	C273.410797,684.252319 273.477722,681.754456 273.756775,679.069214 
	C279.507294,679.069214 285.082581,679.069214 290.642273,679.069214 
	C293.231262,696.415649 283.893677,707.699890 266.582153,708.159973 
	C255.951675,708.442566 245.970825,706.758362 240.876328,695.890015 
	C238.873428,691.617126 237.361099,686.678711 237.290466,682.018188 
	C237.086868,668.586731 237.731552,655.142456 238.118530,641.292480 
z"/>
<path fill="#FAFBFC" opacity="1.000000" stroke="none" 
	d="
M371.127136,622.991211 
	C385.554749,622.990967 399.491669,622.990967 413.604340,622.990967 
	C413.604340,627.562012 413.604340,631.632263 413.604340,636.167847 
	C404.288147,636.167847 395.206665,636.167847 385.829163,636.167847 
	C385.829163,643.028015 385.829163,649.425293 385.829163,656.344849 
	C394.352448,656.344849 402.762177,656.344849 411.505005,656.344849 
	C411.505005,660.915527 411.505005,664.985229 411.505005,669.674316 
	C403.097961,669.674316 394.547211,669.674316 385.769287,669.674316 
	C385.769287,678.028259 385.769287,685.769714 385.769287,693.863770 
	C395.280731,693.863770 404.726776,693.863770 414.508911,693.863770 
	C414.508911,698.270508 414.508911,702.336487 414.508911,706.794495 
	C399.228149,706.794495 383.853271,706.794495 368.143433,706.794495 
	C368.048035,705.870117 367.836243,704.770325 367.835449,703.670471 
	C367.816620,678.194275 367.808014,652.718018 367.846191,627.241882 
	C367.849060,625.334167 366.816193,622.499146 371.127136,622.991211 
z"/>
<path fill="#FBFCFC" opacity="1.000000" stroke="none" 
	d="
M198.007416,652.943726 
	C197.407516,656.542603 199.377106,656.518250 201.563461,656.501221 
	C208.868683,656.444092 216.174637,656.479553 223.741638,656.479553 
	C223.741638,660.957153 223.741638,665.056335 223.741638,669.616455 
	C215.417236,669.616455 207.004486,669.616455 198.302765,669.616455 
	C198.302765,677.821777 198.302765,685.578735 198.302765,693.897278 
	C207.711029,693.897278 217.262604,693.897278 226.971191,693.897278 
	C226.971191,698.535767 226.971191,702.614685 226.971191,706.909058 
	C211.375443,706.909058 195.985870,706.909058 180.375336,706.909058 
	C180.375336,679.030334 180.375336,651.417786 180.375336,623.398804 
	C195.343369,623.398804 210.397629,623.398804 225.815628,623.398804 
	C225.815628,627.353760 225.815628,631.538269 225.815628,636.169495 
	C216.655197,636.169495 207.572281,636.169495 198.007187,636.169495 
	C198.007187,641.877686 198.007187,647.162231 198.007416,652.943726 
z"/>
<path fill="#FAFBFC" opacity="1.000000" stroke="none" 
	d="
M545.374451,636.717346 
	C539.124451,636.822266 533.315552,636.822266 526.957458,636.822266 
	C526.957458,660.263855 526.957458,683.456970 526.957458,706.911255 
	C520.808960,706.911255 515.205200,706.911255 509.038666,706.911255 
	C509.038666,683.882507 509.038666,660.693542 509.038666,637.065308 
	C502.415375,637.065308 496.330597,637.065308 489.863464,637.065308 
	C489.863464,632.246216 489.863464,627.862671 489.863464,623.229736 
	C508.622528,623.229736 527.341309,623.229736 546.780945,623.229736 
	C546.448730,627.834473 546.132141,632.223450 545.374451,636.717346 
z"/>
<path fill="#FFFFFF" opacity="1.000000" stroke="none" 
	d="
M573.999573,669.000000 
	C573.999573,681.929626 573.999573,694.359192 573.999573,706.974854 
	C567.934570,706.974854 562.323303,706.974854 556.355408,706.974854 
	C556.355408,679.222778 556.355408,651.388611 556.355408,623.276733 
	C561.997192,623.276733 567.724243,623.276733 573.999573,623.276733 
	C573.999573,638.352600 573.999573,653.426331 573.999573,669.000000 
z"/>
<path fill="#03294E" opacity="1.000000" stroke="none" 
	d="
M606.166992,644.667053 
	C608.425598,635.766357 611.224121,633.219177 617.561951,633.699463 
	C621.469666,633.995605 624.280090,635.854126 625.460327,639.513367 
	C626.367126,642.324707 627.091003,645.336792 627.115662,648.266174 
	C627.215088,660.065857 627.067810,671.869019 626.863953,683.668335 
	C626.830200,685.622070 626.235229,687.623169 625.594238,689.497864 
	C624.156250,693.703857 621.263367,695.964905 616.636719,696.029175 
	C612.010864,696.093384 608.492249,694.074158 607.711548,689.703979 
	C606.404785,682.388977 605.542175,674.931641 605.297668,667.507629 
	C605.052246,660.053650 605.790527,652.567261 606.166992,644.667053 
z"/>
<path fill="#0A3053" opacity="1.000000" stroke="none" 
	d="
M334.289246,656.262512 
	C329.721100,657.767883 325.408783,658.968750 320.451599,660.349243 
	C320.451599,651.486023 320.451599,644.093567 320.451599,636.387512 
	C325.551178,636.098511 331.139984,634.877686 334.418427,639.399963 
	C338.064911,644.429871 337.311951,650.404663 334.289246,656.262512 
z"/>
<path fill="#032A4E" opacity="1.000000" stroke="none" 
	d="
M132.839218,647.016724 
	C132.839218,643.236328 132.839218,639.949524 132.839218,636.328125 
	C138.344009,636.245789 144.045868,634.847168 147.285248,639.964661 
	C150.253250,644.653442 150.119919,650.359070 147.274109,655.175903 
	C144.068420,660.601868 138.366684,658.938782 132.839218,659.105103 
	C132.839218,655.057800 132.839218,651.284058 132.839218,647.016724 
z"/>
<path fill="#0C3154" opacity="1.000000" stroke="none" 
	d="
M454.186523,675.853882 
	C452.238617,675.853882 450.759430,675.853882 448.721100,675.853882 
	C451.313202,664.283325 453.804688,653.161926 456.296173,642.040527 
	C456.602783,641.978149 456.909424,641.915771 457.216064,641.853333 
	C459.892242,652.937500 462.568420,664.021606 465.425232,675.853882 
	C461.473694,675.853882 458.064453,675.853882 454.186523,675.853882 
z"/>
</svg>