<?xml version="1.0" encoding="UTF-8"?>
<svg xmlns="http://www.w3.org/2000/svg" width="500" height="507.99999999999994" viewBox="0 0 500 507.99999999999994" style="background: transparent;">
  
  <g transform="translate(50,0)">
    <g xmlns="http://www.w3.org/2000/svg" id="svgg"><path id="path0" d="M12.185 12.900 C 12.080 13.175,12.041 43.820,12.097 81.000 L 12.200 148.600 22.100 148.707 L 32.000 148.814 32.000 254.400 L 32.000 359.986 22.100 360.093 L 12.200 360.200 12.200 428.000 L 12.200 495.800 164.649 495.901 L 317.098 496.001 319.649 493.738 C 321.052 492.493,323.640 490.178,325.400 488.593 C 327.160 487.008,334.180 480.707,341.000 474.592 C 347.820 468.476,354.930 462.092,356.800 460.406 C 358.670 458.720,362.900 454.921,366.200 451.964 C 369.500 449.007,375.665 443.470,379.900 439.658 L 387.600 432.728 387.600 254.440 C 387.600 112.413,387.498 76.025,387.100 75.524 C 386.825 75.178,383.630 72.236,380.000 68.987 C 376.370 65.738,371.960 61.788,370.200 60.208 C 366.788 57.146,348.992 41.192,343.001 35.824 C 341.022 34.051,338.592 31.862,337.601 30.959 C 334.451 28.091,319.860 15.052,318.286 13.700 L 316.772 12.400 164.574 12.400 C 43.183 12.400,12.336 12.501,12.185 12.900 M308.848 41.500 C 312.004 44.308,331.142 61.480,333.000 63.170 C 333.880 63.970,336.407 66.239,338.615 68.212 C 340.824 70.186,346.629 75.389,351.515 79.776 L 360.400 87.753 360.394 254.176 C 360.391 345.709,360.256 420.780,360.094 421.000 C 359.803 421.396,355.941 424.907,348.200 431.815 C 346.000 433.778,343.480 436.038,342.600 436.837 C 341.720 437.637,335.420 443.291,328.600 449.402 C 321.780 455.513,315.390 461.259,314.400 462.171 C 313.410 463.083,311.206 465.038,309.501 466.515 L 306.403 469.201 172.901 469.101 L 39.400 469.000 39.298 428.107 L 39.196 387.214 49.098 387.107 L 59.000 387.000 59.000 254.400 L 59.000 121.800 49.200 121.600 L 39.400 121.400 39.298 80.500 L 39.196 39.600 172.955 39.600 L 306.713 39.600 308.848 41.500 M146.585 122.100 C 146.481 122.375,146.441 182.090,146.498 254.800 L 146.600 387.000 204.600 387.099 L 262.600 387.198 263.811 386.099 C 264.477 385.495,266.547 383.667,268.411 382.037 C 270.275 380.407,272.115 378.722,272.500 378.293 C 273.163 377.552,273.200 371.083,273.200 254.358 L 273.200 131.204 270.900 129.053 C 269.635 127.869,267.250 125.710,265.600 124.254 L 262.600 121.606 204.687 121.603 C 158.723 121.601,146.736 121.703,146.585 122.100 M246.000 254.400 L 246.000 360.000 209.800 360.000 L 173.600 360.000 173.600 254.400 L 173.600 148.800 209.800 148.800 L 246.000 148.800 246.000 254.400 " stroke="none" fill="#f7f7f7" fill-rule="evenodd"/><path id="path1" d="M49.867 49.867 C 49.720 50.013,49.600 63.873,49.600 80.667 L 49.600 111.200 59.353 111.200 L 69.107 111.200 69.348 112.100 C 69.795 113.767,69.634 395.989,69.186 396.826 C 68.794 397.558,68.254 397.600,59.186 397.600 L 49.600 397.600 49.600 428.200 L 49.600 458.800 176.037 458.800 C 299.242 458.800,302.498 458.781,303.431 458.047 C 304.300 457.363,307.602 454.423,313.591 449.000 C 314.806 447.900,315.890 446.910,316.000 446.800 C 316.110 446.690,317.730 445.253,319.600 443.607 C 321.470 441.961,323.270 440.341,323.601 440.007 C 323.931 439.673,325.731 438.052,327.601 436.406 C 329.470 434.759,331.090 433.319,331.200 433.206 C 331.310 433.092,333.110 431.470,335.200 429.600 C 337.290 427.730,339.090 426.110,339.200 426.000 C 339.310 425.890,341.108 424.270,343.197 422.400 C 345.285 420.530,347.760 418.296,348.697 417.435 L 350.400 415.870 350.400 254.164 L 350.400 92.458 349.365 91.644 C 348.795 91.196,346.770 89.413,344.865 87.682 C 342.959 85.950,340.590 83.829,339.600 82.967 C 338.610 82.105,337.530 81.127,337.200 80.793 C 336.870 80.459,335.070 78.839,333.201 77.193 C 331.331 75.547,329.531 73.929,329.201 73.598 C 328.870 73.267,327.070 71.647,325.200 69.998 C 323.330 68.349,321.710 66.910,321.600 66.800 C 321.490 66.690,319.690 65.070,317.600 63.200 C 315.510 61.330,313.710 59.708,313.600 59.594 C 313.490 59.481,311.870 58.041,310.001 56.394 C 308.131 54.748,306.331 53.129,306.001 52.797 C 305.670 52.465,304.719 51.610,303.886 50.897 L 302.372 49.600 176.253 49.600 C 106.887 49.600,50.013 49.720,49.867 49.867 M268.207 112.704 C 269.091 113.527,270.720 115.010,271.827 116.000 C 272.934 116.990,275.486 119.297,277.499 121.126 C 279.511 122.955,281.617 124.813,282.179 125.255 L 283.200 126.058 283.200 254.380 L 283.200 382.702 280.100 385.447 C 278.395 386.957,276.910 388.285,276.800 388.397 C 276.690 388.509,275.252 389.771,273.603 391.200 C 271.955 392.630,269.934 394.410,269.112 395.156 C 268.290 395.902,267.267 396.758,266.839 397.058 C 266.189 397.513,255.399 397.586,201.131 397.501 L 136.200 397.400 136.098 254.800 C 136.041 176.370,136.081 111.975,136.185 111.700 C 136.336 111.303,149.762 111.201,201.487 111.204 L 266.600 111.209 268.207 112.704 " stroke="none" fill="#046b3b" fill-rule="evenodd"/><path id="path2" d="M1.200 80.400 L 1.200 159.600 11.200 159.600 L 21.200 159.600 21.200 254.400 L 21.200 349.200 11.200 349.200 L 1.200 349.200 1.200 428.400 L 1.200 507.600 161.038 507.600 L 320.877 507.600 322.138 506.709 C 322.832 506.218,324.570 504.640,326.000 503.200 C 327.430 501.760,329.230 500.140,330.000 499.600 C 330.770 499.060,332.570 497.440,334.000 496.000 C 335.430 494.560,337.230 492.940,338.000 492.400 C 338.770 491.860,340.606 490.198,342.081 488.709 C 343.555 487.219,344.938 486.000,345.153 486.000 C 345.369 486.000,346.958 484.600,348.685 482.889 C 350.412 481.179,352.450 479.337,353.213 478.798 C 353.976 478.259,355.770 476.640,357.200 475.200 C 358.630 473.760,360.430 472.140,361.200 471.600 C 361.970 471.060,363.770 469.440,365.200 468.000 C 366.630 466.560,368.424 464.941,369.187 464.402 C 369.950 463.863,371.988 462.021,373.715 460.311 C 375.442 458.600,377.030 457.200,377.244 457.200 C 377.459 457.200,379.059 455.760,380.800 454.000 C 382.541 452.240,384.141 450.800,384.356 450.800 C 384.570 450.800,386.158 449.400,387.885 447.689 C 389.612 445.979,391.650 444.135,392.413 443.593 C 393.176 443.052,394.925 441.485,396.300 440.111 L 398.800 437.615 398.800 253.995 C 398.800 79.907,398.764 70.361,398.104 70.108 C 397.721 69.961,396.019 68.437,394.321 66.720 C 392.623 65.004,391.059 63.600,390.844 63.600 C 390.630 63.600,389.042 62.200,387.315 60.489 C 385.588 58.779,383.550 56.937,382.787 56.398 C 382.024 55.859,380.230 54.240,378.800 52.800 C 377.370 51.360,375.576 49.741,374.813 49.202 C 374.050 48.663,372.012 46.821,370.285 45.111 C 368.558 43.400,366.969 42.000,366.753 42.000 C 366.538 42.000,365.155 40.781,363.681 39.291 C 362.206 37.802,360.370 36.140,359.600 35.600 C 358.830 35.060,357.030 33.440,355.600 32.000 C 354.170 30.560,352.370 28.940,351.600 28.400 C 350.830 27.860,349.030 26.240,347.600 24.800 C 346.170 23.360,344.376 21.741,343.613 21.202 C 342.850 20.663,340.812 18.821,339.085 17.111 C 337.358 15.400,335.769 14.000,335.553 14.000 C 335.338 14.000,333.955 12.781,332.481 11.291 C 331.006 9.802,329.170 8.140,328.400 7.600 C 327.630 7.060,325.794 5.398,324.319 3.909 L 321.639 1.200 161.419 1.200 L 1.200 1.200 1.200 80.400 M318.142 12.655 C 319.656 13.924,336.309 28.815,340.000 32.200 C 341.440 33.520,346.751 38.290,351.802 42.800 C 356.854 47.310,362.076 51.990,363.407 53.200 C 364.738 54.410,369.958 59.090,375.006 63.600 C 380.055 68.110,385.134 72.681,386.293 73.758 L 388.400 75.716 388.400 254.289 L 388.400 432.862 387.294 433.931 C 386.685 434.519,383.862 437.070,381.020 439.600 C 378.178 442.130,372.871 446.879,369.226 450.154 C 365.582 453.429,360.268 458.199,357.418 460.754 C 354.568 463.309,351.145 466.390,349.812 467.600 C 348.478 468.810,343.250 473.490,338.194 478.000 C 333.137 482.510,327.920 487.196,326.600 488.412 C 325.280 489.629,322.644 492.014,320.741 493.712 L 317.283 496.800 164.488 496.800 L 11.693 496.800 11.452 495.900 C 10.902 493.848,11.177 360.517,11.732 360.057 C 12.078 359.770,15.542 359.577,21.632 359.508 L 31.000 359.400 31.101 254.300 L 31.202 149.200 21.681 149.200 C 14.809 149.200,12.026 149.066,11.680 148.720 C 11.064 148.104,10.975 14.243,11.590 12.626 L 11.980 11.600 164.432 11.600 L 316.885 11.600 318.142 12.655 M39.600 80.400 C 39.600 102.400,39.645 120.437,39.700 120.482 C 39.755 120.527,44.210 120.662,49.600 120.782 L 59.400 121.000 59.501 253.958 C 59.574 350.864,59.481 387.062,59.158 387.451 C 58.815 387.864,56.557 388.010,49.257 388.093 L 39.800 388.200 39.698 428.300 L 39.596 468.400 173.024 468.400 L 306.452 468.400 315.726 460.058 C 330.343 446.910,353.118 426.468,356.509 423.451 L 359.600 420.702 359.562 254.251 L 359.524 87.800 357.048 85.600 C 350.853 80.097,343.456 73.479,333.800 64.800 C 328.048 59.630,321.025 53.330,318.194 50.800 C 315.364 48.270,311.602 44.895,309.835 43.300 L 306.622 40.400 173.111 40.400 L 39.600 40.400 39.600 80.400 M303.886 50.897 C 304.719 51.610,305.670 52.465,306.001 52.797 C 306.331 53.129,308.131 54.748,310.001 56.394 C 311.870 58.041,313.490 59.481,313.600 59.594 C 313.710 59.708,315.510 61.330,317.600 63.200 C 319.690 65.070,321.490 66.690,321.600 66.800 C 321.710 66.910,323.330 68.349,325.200 69.998 C 327.070 71.647,328.870 73.267,329.201 73.598 C 329.531 73.929,331.331 75.547,333.201 77.193 C 335.070 78.839,336.870 80.459,337.200 80.793 C 337.530 81.127,338.610 82.105,339.600 82.967 C 340.590 83.829,342.959 85.950,344.865 87.682 C 346.770 89.413,348.795 91.196,349.365 91.644 L 350.400 92.458 350.400 254.164 L 350.400 415.870 348.697 417.435 C 347.760 418.296,345.285 420.530,343.197 422.400 C 341.108 424.270,339.310 425.890,339.200 426.000 C 339.090 426.110,337.290 427.730,335.200 429.600 C 333.110 431.470,331.310 433.092,331.200 433.206 C 331.090 433.319,329.470 434.759,327.601 436.406 C 325.731 438.052,323.931 439.673,323.601 440.007 C 323.270 440.341,321.470 441.961,319.600 443.607 C 317.730 445.253,316.110 446.690,316.000 446.800 C 315.890 446.910,314.806 447.900,313.591 449.000 C 307.602 454.423,304.300 457.363,303.431 458.047 C 302.498 458.781,299.242 458.800,176.037 458.800 L 49.600 458.800 49.600 428.200 L 49.600 397.600 59.186 397.600 C 68.254 397.600,68.794 397.558,69.186 396.826 C 69.634 395.989,69.795 113.767,69.348 112.100 L 69.107 111.200 59.353 111.200 L 49.600 111.200 49.600 80.667 C 49.600 63.873,49.720 50.013,49.867 49.867 C 50.013 49.720,106.887 49.600,176.253 49.600 L 302.372 49.600 303.886 50.897 M136.185 111.700 C 136.081 111.975,136.041 176.370,136.098 254.800 L 136.200 397.400 201.131 397.501 C 255.399 397.586,266.189 397.513,266.839 397.058 C 267.267 396.758,268.290 395.902,269.112 395.156 C 269.934 394.410,271.955 392.630,273.603 391.200 C 275.252 389.771,276.690 388.509,276.800 388.397 C 276.910 388.285,278.395 386.957,280.100 385.447 L 283.200 382.702 283.200 254.380 L 283.200 126.058 282.179 125.255 C 281.617 124.813,279.511 122.955,277.499 121.126 C 275.486 119.297,272.934 116.990,271.827 116.000 C 270.720 115.010,269.091 113.527,268.207 112.704 L 266.600 111.209 201.487 111.204 C 149.762 111.201,136.336 111.303,136.185 111.700 M268.130 125.596 C 271.090 128.233,273.621 130.678,273.756 131.028 C 273.890 131.379,274.000 187.080,274.000 254.808 L 274.000 377.951 268.900 382.509 C 266.095 385.016,263.407 387.277,262.926 387.534 C 261.644 388.218,146.765 388.205,146.080 387.520 C 145.381 386.821,145.381 121.979,146.080 121.280 C 146.449 120.911,160.003 120.800,204.654 120.800 L 262.749 120.800 268.130 125.596 M174.000 254.157 C 174.000 349.495,174.058 359.137,174.633 359.357 C 174.981 359.491,191.001 359.600,210.233 359.600 L 245.200 359.600 245.200 254.400 L 245.200 149.200 209.600 149.200 L 174.000 149.200 174.000 254.157 M234.800 254.400 L 234.800 349.200 209.600 349.200 L 184.400 349.200 184.400 254.400 L 184.400 159.600 209.600 159.600 L 234.800 159.600 234.800 254.400 " stroke="none" fill="#040404" fill-rule="evenodd"/><path id="path3" d="M12.000 12.300 C 12.000 12.465,80.573 12.555,164.385 12.499 L 316.770 12.398 318.285 13.699 C 319.860 15.052,334.451 28.090,337.601 30.959 C 338.592 31.862,341.022 34.051,343.001 35.824 C 348.992 41.192,366.788 57.146,370.200 60.208 C 371.960 61.788,376.370 65.738,380.000 68.987 C 383.630 72.236,386.825 75.178,387.100 75.524 C 387.498 76.025,387.600 112.413,387.600 254.440 L 387.600 432.728 379.900 439.658 C 375.665 443.470,369.500 449.007,366.200 451.964 C 362.900 454.921,358.670 458.720,356.800 460.406 C 354.930 462.092,347.820 468.476,341.000 474.592 C 334.180 480.707,327.160 487.008,325.400 488.593 C 323.640 490.178,321.052 492.493,319.649 493.738 L 317.098 496.001 164.649 495.901 L 12.200 495.800 12.200 428.000 L 12.200 360.200 22.100 360.093 L 32.000 359.986 32.000 254.393 C 32.000 196.317,31.865 148.800,31.700 148.800 C 31.535 148.800,31.446 196.230,31.501 254.200 L 31.603 359.600 22.081 359.600 C 15.209 359.600,12.426 359.734,12.080 360.080 C 11.442 360.718,11.377 494.835,12.014 496.026 C 12.474 496.886,314.728 497.287,316.874 496.431 C 317.383 496.227,318.524 495.372,319.410 494.531 C 320.295 493.689,322.544 491.650,324.409 490.000 C 326.273 488.350,328.069 486.729,328.399 486.398 C 328.730 486.067,330.530 484.447,332.400 482.798 C 334.270 481.149,335.890 479.710,336.000 479.600 C 336.110 479.490,337.910 477.870,340.000 476.000 C 342.090 474.130,343.890 472.510,344.000 472.400 C 344.110 472.290,345.910 470.670,348.000 468.800 C 350.090 466.930,351.890 465.308,352.000 465.194 C 352.110 465.081,353.730 463.641,355.599 461.994 C 357.469 460.348,359.269 458.727,359.599 458.393 C 359.930 458.059,361.730 456.439,363.600 454.793 C 365.470 453.147,367.090 451.710,367.200 451.600 C 367.310 451.490,369.110 449.870,371.200 448.000 C 373.290 446.130,375.090 444.510,375.200 444.400 C 375.310 444.290,377.110 442.670,379.199 440.800 C 382.883 437.503,386.336 434.354,387.454 433.271 C 387.914 432.826,388.000 404.530,388.000 254.221 L 388.000 75.698 384.500 72.551 C 382.575 70.820,380.910 69.313,380.800 69.202 C 380.690 69.091,379.070 67.651,377.200 66.002 C 375.330 64.353,373.530 62.733,373.199 62.402 C 372.869 62.071,371.069 60.453,369.199 58.807 C 367.330 57.161,365.530 55.541,365.199 55.207 C 364.869 54.873,363.069 53.252,361.199 51.606 C 359.330 49.959,357.710 48.519,357.600 48.406 C 357.490 48.292,355.690 46.670,353.600 44.800 C 351.510 42.930,349.710 41.310,349.600 41.200 C 349.490 41.090,347.870 39.651,346.000 38.002 C 344.130 36.353,342.330 34.733,341.999 34.402 C 341.669 34.071,339.869 32.452,337.999 30.806 C 336.130 29.159,334.510 27.719,334.400 27.606 C 334.290 27.492,332.490 25.870,330.400 24.000 C 328.310 22.130,326.510 20.510,326.400 20.400 C 326.290 20.290,324.491 18.670,322.402 16.800 C 320.313 14.930,318.254 13.085,317.826 12.700 C 317.003 11.959,12.000 11.560,12.000 12.300 M11.697 80.676 C 11.644 117.898,11.735 148.436,11.900 148.538 C 12.171 148.706,12.170 102.191,11.897 37.400 C 11.840 23.980,11.750 43.454,11.697 80.676 M39.298 80.500 L 39.400 121.400 49.300 121.600 C 54.746 121.710,59.201 121.665,59.200 121.500 C 59.200 121.335,55.075 121.200,50.033 121.200 C 44.991 121.200,40.581 121.091,40.233 120.957 C 39.662 120.738,39.600 116.789,39.600 80.357 L 39.600 40.000 173.100 40.002 L 306.600 40.004 307.811 41.102 C 308.477 41.706,310.547 43.548,312.411 45.194 C 314.275 46.841,315.890 48.281,316.000 48.394 C 316.110 48.508,317.910 50.130,320.000 52.000 C 322.090 53.870,323.890 55.490,324.000 55.600 C 324.110 55.710,325.910 57.330,328.000 59.200 C 330.090 61.070,331.890 62.690,332.000 62.800 C 332.110 62.910,333.100 63.794,334.200 64.765 C 335.300 65.735,337.103 67.355,338.206 68.365 C 339.309 69.374,341.739 71.548,343.606 73.194 C 345.473 74.841,347.090 76.281,347.200 76.394 C 347.310 76.508,349.108 78.130,351.197 80.000 C 353.285 81.870,355.755 84.099,356.685 84.954 C 357.616 85.809,358.742 86.764,359.188 87.077 L 360.000 87.645 360.000 254.169 L 360.000 420.693 356.700 423.677 C 354.885 425.318,352.590 427.367,351.600 428.231 C 350.610 429.094,348.900 430.626,347.800 431.635 C 346.700 432.645,344.902 434.265,343.803 435.235 C 342.705 436.206,340.905 437.826,339.803 438.835 C 338.702 439.845,336.900 441.465,335.800 442.435 C 334.700 443.406,333.710 444.290,333.600 444.400 C 333.490 444.510,331.690 446.130,329.600 448.000 C 327.510 449.870,325.710 451.490,325.600 451.600 C 325.490 451.710,323.690 453.330,321.600 455.200 C 319.510 457.070,317.710 458.690,317.600 458.800 C 317.490 458.910,315.870 460.348,314.000 461.996 C 309.868 465.638,305.735 469.633,308.200 467.604 C 309.080 466.879,311.240 464.992,313.000 463.409 C 314.760 461.827,321.780 455.528,328.600 449.412 C 335.420 443.295,341.720 437.637,342.600 436.837 C 343.480 436.038,346.000 433.778,348.200 431.815 C 355.941 424.907,359.803 421.396,360.094 421.000 C 360.256 420.780,360.391 345.709,360.394 254.176 L 360.400 87.753 351.515 79.776 C 346.629 75.389,340.824 70.186,338.615 68.212 C 336.407 66.239,333.880 63.970,333.000 63.170 C 331.142 61.480,312.004 44.308,308.848 41.500 L 306.713 39.600 172.955 39.600 L 39.196 39.600 39.298 80.500 M146.243 121.833 C 145.735 123.155,145.971 386.611,146.480 387.120 C 146.850 387.490,160.233 387.578,204.780 387.502 L 262.600 387.404 204.600 387.202 L 146.600 387.000 146.600 254.400 L 146.600 121.800 204.600 121.702 L 262.600 121.605 265.600 124.253 C 267.250 125.709,269.635 127.869,270.900 129.053 L 273.200 131.204 273.200 254.358 C 273.200 371.083,273.163 377.552,272.500 378.293 C 272.115 378.722,270.275 380.407,268.411 382.037 C 263.965 385.925,262.352 387.461,263.509 386.706 C 264.008 386.380,265.092 385.502,265.917 384.756 C 266.741 384.010,268.808 382.169,270.508 380.664 L 273.600 377.928 273.600 254.422 L 273.600 130.916 270.720 128.358 C 269.136 126.951,267.466 125.440,267.010 125.000 C 266.554 124.560,265.419 123.525,264.489 122.700 L 262.798 121.200 204.642 121.200 C 151.980 121.200,146.463 121.260,146.243 121.833 M245.501 254.200 L 245.603 359.600 209.835 359.600 C 181.595 359.600,174.024 359.495,173.865 359.100 C 173.744 358.801,173.650 358.882,173.632 359.300 C 173.602 359.962,175.578 360.000,209.800 360.000 L 246.000 360.000 246.000 254.400 C 246.000 196.320,245.865 148.800,245.700 148.800 C 245.535 148.800,245.446 196.230,245.501 254.200 M49.098 387.100 L 39.196 387.214 39.298 428.107 L 39.400 469.000 172.900 469.001 L 306.400 469.002 173.000 468.900 L 39.600 468.799 39.600 428.199 L 39.600 387.600 49.176 387.600 C 55.129 387.600,58.846 387.449,59.000 387.200 C 59.136 386.980,59.192 386.842,59.124 386.893 C 59.056 386.944,54.544 387.037,49.098 387.100 " stroke="none" fill="#7c7c7c" fill-rule="evenodd"/><path id="path4" d="M11.590 12.626 C 10.975 14.243,11.064 148.104,11.680 148.720 C 12.026 149.066,14.809 149.200,21.681 149.200 L 31.203 149.200 31.101 254.400 C 31.046 312.260,31.135 359.600,31.301 359.600 C 31.466 359.600,31.556 312.215,31.501 254.300 L 31.400 149.000 21.600 148.800 L 11.800 148.600 11.687 81.600 C 11.624 44.750,11.678 14.015,11.805 13.300 L 12.036 12.000 164.538 12.000 C 285.974 12.000,317.154 12.102,317.601 12.500 C 318.078 12.925,318.082 12.896,317.632 12.300 C 317.129 11.635,309.369 11.600,164.541 11.600 L 11.980 11.600 11.590 12.626 M320.724 15.286 C 324.947 19.155,325.872 19.823,322.424 16.512 C 320.541 14.704,318.876 13.219,318.724 13.212 C 318.572 13.205,319.472 14.139,320.724 15.286 M326.435 20.257 C 326.454 20.446,328.200 22.130,330.316 24.000 C 332.432 25.870,334.040 27.197,333.889 26.950 C 333.435 26.205,326.397 19.886,326.435 20.257 M334.400 27.349 C 334.400 27.478,335.165 28.278,336.100 29.126 C 339.690 32.385,341.341 33.783,341.081 33.348 C 340.709 32.724,334.400 27.059,334.400 27.349 M342.433 34.658 C 342.451 34.846,344.018 36.350,345.916 38.000 C 347.814 39.650,349.241 40.796,349.089 40.548 C 348.634 39.805,342.397 34.286,342.433 34.658 M173.039 40.300 C 306.071 40.401,306.680 40.405,307.401 41.201 C 307.798 41.640,308.290 42.000,308.493 42.000 C 308.695 42.000,308.327 41.550,307.673 41.000 L 306.485 40.000 172.942 40.099 L 39.400 40.199 173.039 40.300 M351.717 43.083 C 356.187 47.124,356.899 47.658,353.623 44.512 C 351.741 42.704,350.073 41.219,349.917 41.212 C 349.762 41.205,350.572 42.047,351.717 43.083 M312.396 45.526 C 314.264 47.294,315.853 48.680,315.927 48.607 C 316.070 48.463,313.734 46.282,310.800 43.821 C 309.810 42.991,310.528 43.758,312.396 45.526 M357.600 48.154 C 357.600 48.280,358.365 49.078,359.300 49.926 C 363.017 53.299,364.400 54.484,364.400 54.296 C 364.400 54.187,362.870 52.709,361.000 51.012 C 359.130 49.314,357.600 48.028,357.600 48.154 M319.973 52.293 C 321.858 54.104,323.527 55.589,323.683 55.593 C 323.838 55.597,323.028 54.753,321.883 53.717 C 317.429 49.690,316.692 49.141,319.973 52.293 M365.600 55.349 C 365.600 55.478,366.365 56.278,367.300 57.126 C 370.890 60.385,372.541 61.783,372.281 61.348 C 371.909 60.724,365.600 55.059,365.600 55.349 M327.977 59.488 C 329.859 61.296,331.527 62.781,331.683 62.788 C 331.838 62.795,331.028 61.953,329.883 60.917 C 325.413 56.876,324.701 56.342,327.977 59.488 M373.273 62.500 C 373.565 62.775,375.333 64.325,377.202 65.944 L 380.600 68.889 377.000 65.457 C 375.020 63.569,373.252 62.019,373.071 62.012 C 372.891 62.005,372.982 62.225,373.273 62.500 M335.976 66.688 C 337.859 68.496,339.524 69.981,339.676 69.988 C 339.828 69.995,338.928 69.061,337.676 67.914 C 333.453 64.045,332.528 63.377,335.976 66.688 M384.330 72.381 L 388.000 75.675 388.000 254.209 C 388.000 403.116,387.911 432.831,387.463 433.271 C 387.167 433.562,386.074 434.581,385.032 435.536 C 383.991 436.491,383.200 437.333,383.274 437.408 C 383.349 437.482,384.532 436.501,385.905 435.227 L 388.400 432.910 388.400 254.285 L 388.400 75.660 384.968 72.530 C 383.081 70.809,381.340 69.330,381.099 69.243 C 380.858 69.157,382.312 70.569,384.330 72.381 M343.596 73.526 C 345.464 75.294,347.053 76.680,347.127 76.607 C 347.270 76.463,344.934 74.282,342.000 71.821 C 341.010 70.991,341.728 71.758,343.596 73.526 M351.173 80.293 C 353.058 82.104,354.727 83.589,354.883 83.593 C 355.038 83.597,354.228 82.753,353.083 81.717 C 348.629 77.690,347.892 77.141,351.173 80.293 M357.500 85.982 L 359.600 88.057 359.600 254.309 L 359.600 420.562 358.300 421.981 L 357.000 423.400 358.500 422.022 L 360.000 420.643 359.995 254.222 L 359.990 87.800 357.695 85.853 L 355.400 83.907 357.500 85.982 M40.137 120.894 C 40.392 121.056,44.785 121.191,49.901 121.194 L 59.201 121.200 59.101 254.300 L 59.000 387.400 49.300 387.507 C 43.965 387.566,39.600 387.746,39.600 387.907 C 39.599 388.389,58.482 388.030,59.076 387.537 C 59.833 386.909,59.857 121.266,59.100 120.997 C 58.230 120.687,39.652 120.586,40.137 120.894 M146.080 121.280 C 145.381 121.979,145.381 386.821,146.080 387.520 C 146.449 387.889,159.924 388.000,204.300 388.000 C 268.118 388.000,262.963 388.224,265.600 385.334 L 267.000 383.800 265.600 385.040 C 262.424 387.852,268.427 387.600,204.591 387.600 C 160.300 387.600,146.849 387.489,146.480 387.120 C 145.971 386.611,145.735 123.155,146.243 121.833 C 146.463 121.260,151.980 121.200,204.642 121.200 L 262.798 121.200 264.499 122.655 L 266.200 124.111 264.515 122.455 L 262.831 120.800 204.695 120.800 C 160.012 120.800,146.449 120.911,146.080 121.280 M267.200 124.949 C 267.200 125.180,269.169 127.042,272.100 129.583 C 274.930 132.036,273.601 130.485,270.400 127.600 C 268.640 126.013,267.200 124.821,267.200 124.949 M273.699 254.464 L 273.600 377.928 270.500 380.653 C 268.795 382.151,267.325 383.427,267.233 383.489 C 267.142 383.550,267.143 383.677,267.237 383.770 C 267.331 383.864,268.897 382.559,270.718 380.870 L 274.029 377.800 273.914 254.400 L 273.799 131.000 273.699 254.464 M173.786 149.298 C 173.681 149.574,173.642 196.870,173.698 254.400 L 173.802 359.000 173.901 254.100 L 174.000 149.200 209.599 149.200 L 245.199 149.200 245.300 254.300 L 245.402 359.400 245.401 254.200 L 245.400 149.000 209.688 148.898 C 181.330 148.817,173.937 148.899,173.786 149.298 M11.680 360.080 C 11.172 360.588,10.948 494.019,11.452 495.900 C 11.585 496.395,11.859 496.800,12.061 496.800 C 12.268 496.800,12.248 496.463,12.014 496.026 C 11.377 494.835,11.442 360.718,12.080 360.080 C 12.344 359.816,12.470 359.600,12.360 359.600 C 12.250 359.600,11.944 359.816,11.680 360.080 M353.196 426.474 C 351.328 428.242,350.610 429.009,351.600 428.179 C 354.534 425.718,356.870 423.537,356.727 423.393 C 356.653 423.320,355.064 424.706,353.196 426.474 M345.576 433.312 C 342.128 436.623,343.053 435.955,347.276 432.086 C 348.528 430.939,349.428 430.005,349.276 430.012 C 349.124 430.019,347.459 431.504,345.576 433.312 M337.576 440.512 C 334.128 443.823,335.053 443.155,339.276 439.286 C 340.528 438.139,341.428 437.205,341.276 437.212 C 341.124 437.219,339.459 438.704,337.576 440.512 M378.903 441.020 C 376.869 442.879,375.339 444.397,375.503 444.393 C 375.830 444.385,383.122 437.636,382.800 437.638 C 382.690 437.639,380.936 439.160,378.903 441.020 M329.577 447.712 C 326.301 450.858,327.013 450.324,331.483 446.283 C 332.628 445.247,333.438 444.405,333.283 444.412 C 333.127 444.419,331.459 445.904,329.577 447.712 M370.903 448.220 C 368.869 450.079,367.339 451.595,367.503 451.588 C 367.831 451.575,375.120 444.830,374.800 444.836 C 374.690 444.838,372.936 446.360,370.903 448.220 M319.000 457.056 C 315.480 460.228,312.150 463.301,311.600 463.885 C 310.848 464.684,316.540 459.860,317.600 458.800 C 317.934 458.466,325.388 451.836,325.567 451.714 C 325.658 451.651,325.658 451.530,325.567 451.445 C 325.475 451.360,322.520 453.885,319.000 457.056 M365.000 453.480 C 364.120 454.282,362.621 455.644,361.670 456.505 C 360.718 457.367,360.000 458.133,360.073 458.207 C 360.147 458.280,361.736 456.922,363.604 455.188 C 365.472 453.454,366.910 452.032,366.800 452.028 C 366.690 452.025,365.880 452.678,365.000 453.480 M357.000 460.680 C 356.120 461.482,354.621 462.844,353.670 463.705 C 352.718 464.567,352.000 465.333,352.073 465.407 C 352.147 465.480,353.736 464.122,355.604 462.388 C 357.472 460.654,358.910 459.232,358.800 459.228 C 358.690 459.225,357.880 459.878,357.000 460.680 M308.200 466.800 L 306.638 468.400 173.019 468.499 L 39.400 468.599 172.958 468.700 L 306.516 468.801 308.441 467.001 C 309.499 466.010,310.230 465.200,310.064 465.200 C 309.898 465.200,309.059 465.920,308.200 466.800 M349.592 467.309 C 348.597 468.239,346.918 469.781,345.861 470.736 C 344.804 471.691,343.999 472.532,344.072 472.605 C 344.145 472.678,345.914 471.140,348.002 469.186 C 350.091 467.233,351.710 465.631,351.600 465.627 C 351.490 465.622,350.586 466.379,349.592 467.309 M339.703 476.220 C 337.669 478.079,336.139 479.595,336.303 479.588 C 336.631 479.575,343.920 472.830,343.600 472.836 C 343.490 472.838,341.736 474.360,339.703 476.220 M333.791 481.510 C 332.907 482.330,331.406 483.689,330.456 484.531 C 329.506 485.373,328.792 486.125,328.868 486.201 C 328.945 486.278,330.536 484.922,332.404 483.188 C 334.272 481.454,335.710 480.031,335.600 480.027 C 335.490 480.023,334.676 480.691,333.791 481.510 M325.800 488.680 C 324.920 489.482,323.421 490.844,322.470 491.705 C 321.518 492.567,320.800 493.333,320.873 493.407 C 320.947 493.480,322.536 492.122,324.404 490.388 C 326.272 488.654,327.710 487.232,327.600 487.228 C 327.490 487.225,326.680 487.878,325.800 488.680 M318.562 495.247 C 318.143 495.713,317.440 496.242,317.000 496.422 C 316.434 496.654,316.383 496.757,316.825 496.775 C 317.169 496.789,317.968 496.260,318.600 495.600 C 319.232 494.940,319.654 494.400,319.537 494.400 C 319.420 494.400,318.981 494.781,318.562 495.247 " stroke="none" fill="#474747" fill-rule="evenodd"/></g>
  </g>
</svg>